# xmcd CD database file
#
# Track frame offsets:
#        150
#        13927
#        25244
#        37582
#        55225
#        71128
#        83191
#        96402
#        112493
#        126293
#        142369
#        153399
#
# Disc length: 2272 seconds
#
# Revision: 0
# Processed by: cddbd v1.5.2PL0 Copyright (c) Steve Scherf et al.
# Submitted via: CUERipper 2.1.5
#
DISCID=b008de0c
DTITLE=Jill Johnson and Anders Berglund Orchestra - Christmas Island 
DYEAR=2017
DGENRE=Christmas
TTITLE0=Christmas Island
TTITLE1=Mistletoe And Holly
TTITLE2=It's Beginning To Look A Lot Like Christmas
TTITLE3=What Are You Doing On New Years Eve
TTITLE4=Ain't Nothing Like Christmas
TTITLE5=I Will Wait For You
TTITLE6=Let It Snow
TTITLE7=I Wish It Was Christmas
TTITLE8=Christmas Journey
TTITLE9=Christmas Time Is Here
TTITLE10=Winter Wonderland
TTITLE11=When You Wish Upon A Star
EXTD=
EXTT0=
EXTT1=
EXTT2=
EXTT3=
EXTT4=
EXTT5=
EXTT6=
EXTT7=
EXTT8=
EXTT9=
EXTT10=
EXTT11=
PLAYORDER=
